<mxfile host="65bd71144e">
    <diagram id="gzT64gYXHi2i1cUKiYva" name="Level_0">
        <mxGraphModel dx="620" dy="166" grid="1" gridSize="10" guides="1" tooltips="1" connect="1" arrows="1" fold="1" page="1" pageScale="1" pageWidth="827" pageHeight="1169" math="0" shadow="0">
            <root>
                <mxCell id="0"/>
                <mxCell id="1" parent="0"/>
                <mxCell id="2" value="&lt;p style=&quot;margin: 0px ; margin-top: 4px ; text-align: center&quot;&gt;&lt;b&gt;Level_0&lt;/b&gt;&lt;/p&gt;&lt;hr size=&quot;1&quot;&gt;&lt;p style=&quot;margin: 0px ; margin-left: 4px&quot;&gt;- levelName: String&lt;/p&gt;&lt;p style=&quot;margin: 0px ; margin-left: 4px&quot;&gt;- points: int&lt;/p&gt;&lt;hr size=&quot;1&quot;&gt;&lt;p style=&quot;margin: 0px ; margin-left: 4px&quot;&gt;+ play(): String&lt;/p&gt;" style="verticalAlign=top;align=left;overflow=fill;fontSize=12;fontFamily=Helvetica;html=1;" parent="1" vertex="1">
                    <mxGeometry x="220" y="150" width="160" height="90" as="geometry"/>
                </mxCell>
            </root>
        </mxGraphModel>
    </diagram>
    <diagram name="Level_0/1" id="GGQfwgZDNznexEWjimB8">
        <mxGraphModel dx="620" dy="166" grid="1" gridSize="10" guides="1" tooltips="1" connect="1" arrows="1" fold="1" page="1" pageScale="1" pageWidth="827" pageHeight="1169" math="0" shadow="0">
            <root>
                <mxCell id="oCNs8yvMHT0tpxrBZtrX-0"/>
                <mxCell id="oCNs8yvMHT0tpxrBZtrX-1" parent="oCNs8yvMHT0tpxrBZtrX-0"/>
                <mxCell id="oCNs8yvMHT0tpxrBZtrX-2" value="&lt;p style=&quot;margin: 0px ; margin-top: 4px ; text-align: center&quot;&gt;&lt;b&gt;Level_0&lt;/b&gt;&lt;/p&gt;&lt;hr size=&quot;1&quot;&gt;&lt;p style=&quot;margin: 0px ; margin-left: 4px&quot;&gt;- levelName: String&lt;/p&gt;&lt;p style=&quot;margin: 0px ; margin-left: 4px&quot;&gt;- points: int&lt;/p&gt;&lt;hr size=&quot;1&quot;&gt;&lt;p style=&quot;margin: 0px ; margin-left: 4px&quot;&gt;+ play(): String&lt;/p&gt;" style="verticalAlign=top;align=left;overflow=fill;fontSize=12;fontFamily=Helvetica;html=1;" parent="oCNs8yvMHT0tpxrBZtrX-1" vertex="1">
                    <mxGeometry x="220" y="230" width="160" height="90" as="geometry"/>
                </mxCell>
                <mxCell id="oCNs8yvMHT0tpxrBZtrX-3" value="&lt;p style=&quot;margin: 0px ; margin-top: 4px ; text-align: center&quot;&gt;&lt;b&gt;Level_1&lt;/b&gt;&lt;/p&gt;&lt;hr size=&quot;1&quot;&gt;&lt;p style=&quot;margin: 0px ; margin-left: 4px&quot;&gt;- levelName: String&lt;/p&gt;&lt;p style=&quot;margin: 0px ; margin-left: 4px&quot;&gt;- points: int&lt;/p&gt;&lt;hr size=&quot;1&quot;&gt;&lt;p style=&quot;margin: 0px ; margin-left: 4px&quot;&gt;+ play(): String&lt;/p&gt;" style="verticalAlign=top;align=left;overflow=fill;fontSize=12;fontFamily=Helvetica;html=1;" parent="oCNs8yvMHT0tpxrBZtrX-1" vertex="1">
                    <mxGeometry x="220" y="70" width="160" height="90" as="geometry"/>
                </mxCell>
                <mxCell id="oCNs8yvMHT0tpxrBZtrX-4" value="Extends" style="endArrow=block;endSize=16;endFill=0;html=1;exitX=0.5;exitY=0;exitDx=0;exitDy=0;entryX=0.5;entryY=1;entryDx=0;entryDy=0;" parent="oCNs8yvMHT0tpxrBZtrX-1" source="oCNs8yvMHT0tpxrBZtrX-2" target="oCNs8yvMHT0tpxrBZtrX-3" edge="1">
                    <mxGeometry width="160" relative="1" as="geometry">
                        <mxPoint x="240" y="170" as="sourcePoint"/>
                        <mxPoint x="400" y="170" as="targetPoint"/>
                    </mxGeometry>
                </mxCell>
            </root>
        </mxGraphModel>
    </diagram>
    <diagram name="Level_0/1/2" id="dCfc97BAz39TTU4HWjuC">
        <mxGraphModel dx="551" dy="251" grid="1" gridSize="10" guides="1" tooltips="1" connect="1" arrows="1" fold="1" page="1" pageScale="1" pageWidth="827" pageHeight="1169" math="0" shadow="0">
            <root>
                <mxCell id="00NgoYWiKvwzqjrgVIv--0"/>
                <mxCell id="00NgoYWiKvwzqjrgVIv--1" parent="00NgoYWiKvwzqjrgVIv--0"/>
                <mxCell id="00NgoYWiKvwzqjrgVIv--2" value="&lt;p style=&quot;margin: 0px ; margin-top: 4px ; text-align: center&quot;&gt;&lt;b&gt;Level_0&lt;/b&gt;&lt;/p&gt;&lt;hr size=&quot;1&quot;&gt;&lt;p style=&quot;margin: 0px ; margin-left: 4px&quot;&gt;- levelName: String&lt;/p&gt;&lt;p style=&quot;margin: 0px ; margin-left: 4px&quot;&gt;- points: int&lt;/p&gt;&lt;hr size=&quot;1&quot;&gt;&lt;p style=&quot;margin: 0px ; margin-left: 4px&quot;&gt;+ play(): String&lt;/p&gt;" style="verticalAlign=top;align=left;overflow=fill;fontSize=12;fontFamily=Helvetica;html=1;" vertex="1" parent="00NgoYWiKvwzqjrgVIv--1">
                    <mxGeometry x="230" y="320" width="160" height="90" as="geometry"/>
                </mxCell>
                <mxCell id="00NgoYWiKvwzqjrgVIv--3" value="&lt;p style=&quot;margin: 0px ; margin-top: 4px ; text-align: center&quot;&gt;&lt;b&gt;Level_1&lt;/b&gt;&lt;/p&gt;&lt;hr size=&quot;1&quot;&gt;&lt;p style=&quot;margin: 0px ; margin-left: 4px&quot;&gt;- levelName: String&lt;/p&gt;&lt;p style=&quot;margin: 0px ; margin-left: 4px&quot;&gt;- points: int&lt;/p&gt;&lt;hr size=&quot;1&quot;&gt;&lt;p style=&quot;margin: 0px ; margin-left: 4px&quot;&gt;+ play(): String&lt;/p&gt;" style="verticalAlign=top;align=left;overflow=fill;fontSize=12;fontFamily=Helvetica;html=1;" vertex="1" parent="00NgoYWiKvwzqjrgVIv--1">
                    <mxGeometry x="230" y="170" width="160" height="90" as="geometry"/>
                </mxCell>
                <mxCell id="00NgoYWiKvwzqjrgVIv--4" value="Extends" style="endArrow=block;endSize=16;endFill=0;html=1;exitX=0.5;exitY=0;exitDx=0;exitDy=0;entryX=0.5;entryY=1;entryDx=0;entryDy=0;" edge="1" parent="00NgoYWiKvwzqjrgVIv--1" source="00NgoYWiKvwzqjrgVIv--2" target="00NgoYWiKvwzqjrgVIv--3">
                    <mxGeometry width="160" relative="1" as="geometry">
                        <mxPoint x="250" y="240" as="sourcePoint"/>
                        <mxPoint x="410" y="240" as="targetPoint"/>
                    </mxGeometry>
                </mxCell>
                <mxCell id="00NgoYWiKvwzqjrgVIv--5" value="&lt;p style=&quot;margin: 0px ; margin-top: 4px ; text-align: center&quot;&gt;&lt;b&gt;Level_2&lt;/b&gt;&lt;/p&gt;&lt;hr size=&quot;1&quot;&gt;&lt;p style=&quot;margin: 0px ; margin-left: 4px&quot;&gt;- levelName: String&lt;/p&gt;&lt;p style=&quot;margin: 0px ; margin-left: 4px&quot;&gt;- points: int&lt;/p&gt;&lt;hr size=&quot;1&quot;&gt;&lt;p style=&quot;margin: 0px ; margin-left: 4px&quot;&gt;+ play(): String&lt;/p&gt;" style="verticalAlign=top;align=left;overflow=fill;fontSize=12;fontFamily=Helvetica;html=1;" vertex="1" parent="00NgoYWiKvwzqjrgVIv--1">
                    <mxGeometry x="230" y="10" width="160" height="90" as="geometry"/>
                </mxCell>
                <mxCell id="00NgoYWiKvwzqjrgVIv--6" value="Extends" style="endArrow=block;endSize=16;endFill=0;html=1;exitX=0.5;exitY=0;exitDx=0;exitDy=0;entryX=0.5;entryY=1;entryDx=0;entryDy=0;" edge="1" parent="00NgoYWiKvwzqjrgVIv--1" source="00NgoYWiKvwzqjrgVIv--3" target="00NgoYWiKvwzqjrgVIv--5">
                    <mxGeometry width="160" relative="1" as="geometry">
                        <mxPoint x="470" y="160" as="sourcePoint"/>
                        <mxPoint x="470" y="90" as="targetPoint"/>
                    </mxGeometry>
                </mxCell>
                <mxCell id="00NgoYWiKvwzqjrgVIv--7" value="&lt;p style=&quot;margin: 0px ; margin-top: 4px ; text-align: center&quot;&gt;&lt;b&gt;&lt;i&gt;LevelManager&lt;/i&gt;&lt;/b&gt;&lt;/p&gt;&lt;p style=&quot;margin: 0px ; margin-left: 4px&quot;&gt;&lt;br&gt;&lt;/p&gt;&lt;hr size=&quot;1&quot;&gt;&lt;p style=&quot;margin: 0px ; margin-left: 4px&quot;&gt;+ isPlayerInLevel_0&lt;span&gt;(): boolean&lt;/span&gt;&lt;/p&gt;&lt;p style=&quot;margin: 0px ; margin-left: 4px&quot;&gt;+ isPlayerInLevel_1(): boolean&lt;span&gt;&lt;br&gt;&lt;/span&gt;&lt;/p&gt;" style="verticalAlign=top;align=left;overflow=fill;fontSize=12;fontFamily=Helvetica;html=1;" vertex="1" parent="00NgoYWiKvwzqjrgVIv--1">
                    <mxGeometry x="530" y="120" width="180" height="90" as="geometry"/>
                </mxCell>
                <mxCell id="00NgoYWiKvwzqjrgVIv--11" value="return" style="html=1;verticalAlign=bottom;endArrow=open;dashed=1;endSize=8;exitX=0;exitY=0.5;exitDx=0;exitDy=0;entryX=1;entryY=0.5;entryDx=0;entryDy=0;" edge="1" parent="00NgoYWiKvwzqjrgVIv--1" source="00NgoYWiKvwzqjrgVIv--7" target="00NgoYWiKvwzqjrgVIv--5">
                    <mxGeometry relative="1" as="geometry">
                        <mxPoint x="370" y="150" as="sourcePoint"/>
                        <mxPoint x="290" y="150" as="targetPoint"/>
                    </mxGeometry>
                </mxCell>
                <mxCell id="00NgoYWiKvwzqjrgVIv--12" value="return" style="html=1;verticalAlign=bottom;endArrow=open;dashed=1;endSize=8;entryX=1;entryY=0.5;entryDx=0;entryDy=0;" edge="1" parent="00NgoYWiKvwzqjrgVIv--1" target="00NgoYWiKvwzqjrgVIv--3">
                    <mxGeometry relative="1" as="geometry">
                        <mxPoint x="530" y="170" as="sourcePoint"/>
                        <mxPoint x="400" y="65" as="targetPoint"/>
                    </mxGeometry>
                </mxCell>
                <mxCell id="00NgoYWiKvwzqjrgVIv--13" value="return" style="html=1;verticalAlign=bottom;endArrow=open;dashed=1;endSize=8;entryX=1.011;entryY=0.609;entryDx=0;entryDy=0;entryPerimeter=0;" edge="1" parent="00NgoYWiKvwzqjrgVIv--1" target="00NgoYWiKvwzqjrgVIv--2">
                    <mxGeometry relative="1" as="geometry">
                        <mxPoint x="530" y="175" as="sourcePoint"/>
                        <mxPoint x="400" y="65" as="targetPoint"/>
                    </mxGeometry>
                </mxCell>
            </root>
        </mxGraphModel>
    </diagram>
</mxfile>